<svg width="1253" height="294" viewBox="0 0 1253 294" fill="none" xmlns="http://www.w3.org/2000/svg">
<g clip-path="url(#clip0_441_152)">
<path fill-rule="evenodd" clip-rule="evenodd" d="M29.1277 110.736C44.4807 62.4337 89.6892 27.4391 143.07 27.4391C209.089 27.4391 262.607 80.9669 262.607 146.996C262.607 208.334 216.422 258.883 156.936 265.755V228.105C183.013 223.687 204.916 207.01 216.507 184.213H183.388C173.363 195.055 159.016 201.843 143.082 201.843C112.777 201.843 88.2089 177.287 88.2089 146.995C88.2089 116.704 112.777 92.1492 143.082 92.1492C159.49 92.1492 174.217 99.3475 184.273 110.758H216.996C203.59 83.4908 175.529 64.7251 143.082 64.7251C97.6239 64.7251 60.7734 101.559 60.7734 146.995C60.7734 187.767 90.4454 221.611 129.383 228.131V265.775C82.4246 260.422 43.7273 227.857 29.4439 184.234H0.85378C17.339 247.385 74.7623 293.989 143.07 293.989C224.24 293.989 290.043 228.179 290.043 146.996C290.043 65.812 224.24 0 143.07 0C74.4105 0 16.7462 47.0878 0.601562 110.736H29.1277ZM426.202 201.087H394.197V153.775L403.327 153.315H422.492C432.386 153.162 440.04 155.326 445.451 159.809C451.017 164.138 453.801 170.167 453.801 177.897C453.801 185.009 451.326 190.652 446.379 194.826C441.431 198.999 434.706 201.087 426.202 201.087ZM457.051 141.289C461.41 138.406 465.042 135.072 467.948 131.286C473.204 124.484 475.833 116.832 475.833 108.329C475.833 98.2793 473.59 89.9314 469.107 83.2847C464.623 76.4818 458.283 71.3801 450.089 67.979C442.05 64.4233 432.463 62.6455 421.332 62.6455L394.197 62.952V62.8774H367.758V225.203H380.978H394.197H428.289C439.112 225.203 448.465 223.426 456.351 219.869C464.236 216.315 470.344 211.135 474.674 204.333C479.003 197.531 481.167 189.337 481.167 179.752C481.167 168.776 478.23 159.809 472.355 152.853C468.384 148.151 463.283 144.296 457.051 141.289ZM394.197 84.9068H419.94C428.907 84.7532 435.866 86.6857 440.813 90.7044C445.915 94.7247 448.465 100.445 448.465 107.864C448.465 115.13 446.224 120.85 441.741 125.024C437.412 129.045 431.381 131.055 423.651 131.055H394.197V84.9068ZM586.1 212.843L586.757 225.202H611.109L611.804 161.665C611.804 149.605 609.949 139.48 606.238 131.286C602.528 123.091 596.884 116.909 589.307 112.735C581.886 108.559 572.532 106.473 561.246 106.473C552.432 106.473 544.78 107.788 538.285 110.416C531.947 113.044 526.69 116.598 522.516 121.083C518.34 125.566 514.939 130.357 512.311 135.46L535.966 143.808C538.749 139.016 542.228 135.46 546.403 133.141C550.577 130.822 555.371 129.662 560.782 129.662C566.657 129.662 571.373 131.054 574.929 133.836C578.639 136.619 581.346 140.64 583.046 145.895C583.951 148.692 584.615 151.862 585.039 155.403H556.144C541.61 155.403 530.246 158.573 522.052 164.91C514.011 171.25 509.992 180.447 509.992 192.506C509.992 203.791 513.78 212.527 521.356 218.709C529.086 224.893 539.909 227.986 553.825 227.986C567.894 227.986 578.252 223.503 584.902 214.535C585.314 213.983 585.713 213.419 586.1 212.843ZM585.598 177.201V175.346H564.493C554.133 175.346 546.867 176.814 542.692 179.751C538.518 182.534 536.43 186.555 536.43 191.811C536.43 196.293 538.209 199.85 541.765 202.478C545.475 204.95 550.577 206.187 557.07 206.187C562.792 206.187 567.739 204.874 571.914 202.245C576.244 199.463 579.567 195.907 581.886 191.578C584.36 187.095 585.598 182.303 585.598 177.201ZM649.719 225.202V62.877H675.692V126.191C678.816 121.314 682.603 117.292 687.056 114.126C694.169 109.023 702.596 106.473 712.336 106.473C722.85 106.473 731.972 109.023 739.703 114.126C747.588 119.073 753.695 126.107 758.024 135.228C762.508 144.194 764.75 154.861 764.75 167.229C764.75 179.442 762.508 190.109 758.024 199.23C753.695 208.353 747.588 215.464 739.703 220.566C731.972 225.513 722.85 227.986 712.336 227.986C702.596 227.986 694.169 225.513 687.056 220.566C682.473 217.204 678.594 212.971 675.42 207.865L674.302 225.202H649.719ZM679.404 186.477C676.93 180.911 675.692 174.495 675.692 167.229C675.692 159.963 676.93 153.548 679.404 147.982C682.032 142.417 685.666 138.088 690.304 134.996C694.942 131.903 700.199 130.357 706.075 130.357C712.414 130.357 717.98 131.903 722.772 134.996C727.566 138.088 731.277 142.417 733.905 147.982C736.688 153.548 738.079 159.963 738.079 167.229C738.079 174.495 736.61 180.911 733.674 186.477C730.891 192.042 727.101 196.449 722.31 199.694C717.516 202.786 712.028 204.333 705.842 204.333C699.966 204.333 694.711 202.786 690.073 199.694C685.588 196.449 682.032 192.042 679.404 186.477ZM800.043 272.277C804.683 273.67 808.857 274.365 812.567 274.365C820.299 274.365 826.638 272.819 831.585 269.727C836.532 266.79 840.63 262.538 843.877 256.972C847.278 251.407 850.601 244.914 853.849 237.493L907.654 109.256H879.36L845.006 195.029L809.552 109.256H781.258L832.811 224.316L826.483 239.117C824.937 242.826 822.849 245.61 820.221 247.465C817.747 249.475 814.654 250.479 810.945 250.479C809.399 250.479 807.388 250.017 804.914 249.088C802.44 248.315 799.734 247.233 796.797 245.841L787.055 266.944C791.231 269.109 795.56 270.886 800.043 272.277ZM934.719 225.202V62.877H960.692V225.202H934.719ZM1023.38 220.333C1032.5 225.435 1042.86 227.986 1054.46 227.986C1065.9 227.986 1076.11 225.435 1085.07 220.333C1094.04 215.077 1101 207.889 1105.95 198.768C1110.89 189.645 1113.37 179.133 1113.37 167.229C1113.37 155.325 1110.82 144.813 1105.71 135.693C1100.77 126.57 1093.81 119.459 1084.84 114.357C1075.87 109.101 1065.59 106.473 1054 106.473C1042.4 106.473 1032.12 109.101 1023.15 114.357C1014.18 119.459 1007.15 126.57 1002.05 135.693C997.099 144.813 994.625 155.325 994.625 167.229C994.625 179.133 997.177 189.645 1002.28 198.768C1007.38 207.889 1014.42 215.077 1023.38 220.333ZM1071.39 199.463C1066.44 202.555 1060.8 204.101 1054.46 204.101C1047.97 204.101 1042.17 202.555 1037.07 199.463C1032.12 196.216 1028.18 191.888 1025.24 186.477C1022.46 180.911 1021.06 174.495 1021.06 167.229C1021.06 159.963 1022.46 153.548 1025.24 147.982C1028.02 142.417 1031.89 138.088 1036.83 134.996C1041.78 131.903 1047.5 130.357 1054 130.357C1060.49 130.357 1066.21 131.981 1071.16 135.228C1076.11 138.32 1079.97 142.648 1082.75 148.214C1085.69 153.626 1087.16 159.963 1087.16 167.229C1087.16 174.495 1085.77 180.911 1082.99 186.477C1080.2 191.888 1076.34 196.216 1071.39 199.463ZM1147.47 109.256H1171.82L1173.05 125.381C1176.12 120.423 1179.88 116.439 1184.34 113.43C1190.99 108.792 1198.88 106.473 1208 106.473C1222.07 106.473 1232.89 110.802 1240.47 119.459C1248.2 127.962 1252.06 141.102 1252.06 158.881V225.202H1226.09V165.839C1226.09 156.562 1225.01 149.452 1222.84 144.503C1220.83 139.402 1217.89 135.846 1214.03 133.836C1210.32 131.827 1205.91 130.822 1200.81 130.822C1192.15 130.668 1185.43 133.527 1180.63 139.402C1175.84 145.276 1173.44 153.702 1173.44 164.679V225.202H1147.47V109.256Z" fill="white"/>
<path d="M173.165 146.931C173.165 163.584 159.665 177.084 143.012 177.084C126.359 177.084 112.859 163.584 112.859 146.931C112.859 130.278 126.359 116.778 143.012 116.778C159.665 116.778 173.165 130.278 173.165 146.931Z" fill="#FF7C2B"/>
</g>
<defs>
<clipPath id="clip0_441_152">
<rect width="1253" height="294" fill="white"/>
</clipPath>
</defs>
</svg>
