<svg width="352" height="79" viewBox="0 0 352 79" fill="none" xmlns="http://www.w3.org/2000/svg">
<path fill-rule="evenodd" clip-rule="evenodd" d="M69.4049 9.68389H9.69627V69.3162H69.4049V9.68389ZM3.95506 3.95001V75.05H75.1461V3.95001H3.95506Z" fill="white"/>
<path d="M3.95506 22.2988H56.7742V75.0504H3.95506V22.2988Z" fill="#FFAF0F"/>
<path fill-rule="evenodd" clip-rule="evenodd" d="M51.0331 28.0326H9.69627V69.3164H51.0331V28.0326ZM3.95506 22.2988V75.0504H56.7742V22.2988H3.95506Z" fill="white"/>
<path d="M3.95506 3.95001H28.068V28.0322H3.95506V3.95001Z" fill="#FFAF0F"/>
<path fill-rule="evenodd" clip-rule="evenodd" d="M22.3269 9.68389H9.69627V22.2984H22.3269V9.68389ZM3.95506 3.95001V28.0322H28.068V3.95001H3.95506Z" fill="white"/>
<path d="M324.323 55.5542V22.0683H330.66V34.4993H330.753C331.732 33.3984 332.834 32.5881 334.06 32.0683C335.316 31.5177 336.769 31.2425 338.422 31.2425C341.363 31.2425 343.507 32.0223 344.853 33.5819C346.2 35.111 346.858 37.5422 346.829 40.8754V55.5542H340.536V42.1139C340.566 40.1263 340.23 38.6889 339.526 37.8021C338.851 36.8847 337.78 36.4259 336.31 36.4259C335.207 36.4259 334.228 36.6552 333.37 37.114C332.543 37.5422 331.885 38.1384 331.396 38.903C330.906 39.6675 330.66 40.5391 330.66 41.5177V55.5542H324.323Z" fill="white"/>
<path d="M311.971 56.013C309.185 56.013 306.796 55.5238 304.806 54.5452C302.815 53.5666 301.3 52.16 300.26 50.325C299.218 48.4596 298.698 46.2273 298.698 43.628C298.698 40.9979 299.218 38.7655 300.26 36.9307C301.3 35.096 302.815 33.6892 304.806 32.7106C306.796 31.7319 309.185 31.2427 311.971 31.2427C313.379 31.2427 314.696 31.3804 315.922 31.6555C317.146 31.9308 318.341 32.3742 319.503 32.9859L318.493 37.8023C317.421 37.2213 316.381 36.8085 315.37 36.5638C314.389 36.2885 313.411 36.151 312.43 36.151C310.104 36.151 308.297 36.7931 307.011 38.0774C305.756 39.362 305.129 41.2119 305.129 43.628C305.129 46.0132 305.756 47.8633 307.011 49.1783C308.297 50.4626 310.104 51.1049 312.43 51.1049C313.411 51.1049 314.389 50.9825 315.37 50.738C316.381 50.4626 317.421 50.0345 318.493 49.4534L319.503 54.2699C318.341 54.8815 317.146 55.3249 315.922 55.6002C314.696 55.8755 313.379 56.013 311.971 56.013Z" fill="white"/>
<path d="M286.471 56.013C282.185 56.013 278.877 54.9427 276.551 52.802C274.253 50.6613 273.107 47.6034 273.107 43.628C273.107 39.7747 274.163 36.7473 276.275 34.5453C278.388 32.3436 281.297 31.2427 285.001 31.2427C288.585 31.2427 291.339 32.2824 293.269 34.3619C295.229 36.4415 296.208 39.3924 296.208 43.215C296.208 43.6432 296.194 44.1324 296.163 44.683C296.163 45.2334 296.147 45.6462 296.117 45.9215H276.642V41.5637H291.203L290.329 42.8939C290.329 40.5086 289.886 38.7349 288.998 37.573C288.14 36.4109 286.809 35.8299 285.001 35.8299C283.103 35.8299 281.679 36.4415 280.73 37.6646C279.781 38.8573 279.306 40.6463 279.306 43.0315V44.8665C279.306 47.007 279.874 48.5819 281.007 49.5911C282.138 50.6003 283.868 51.1049 286.196 51.1049C287.513 51.1049 288.905 50.9825 290.376 50.738C291.846 50.4933 293.147 50.1569 294.28 49.7287L295.014 54.5452C293.882 55.004 292.55 55.3555 291.019 55.6002C289.518 55.8755 288.003 56.013 286.471 56.013Z" fill="white"/>
<path d="M260.411 55.5542V27.7104H249.663V22.0683H277.817V27.7104H267.069V55.5542H260.411Z" fill="white"/>
<path d="M232.006 31.2427C235.158 31.2427 237.608 32.3284 239.354 34.4995C241.098 36.6708 241.972 39.7135 241.972 43.628C241.972 47.5422 241.098 50.5849 239.354 52.7562C237.608 54.9275 235.158 56.013 232.006 56.013C230.473 56.013 229.065 55.7379 227.78 55.1874C226.524 54.637 225.436 53.8265 224.519 52.7562H224.426V65.1873H218.088V31.7013H224.105L224.151 34.4995H224.242C225.223 33.3986 226.372 32.5883 227.687 32.0685C229.004 31.5179 230.443 31.2427 232.006 31.2427ZM230.121 36.2885C229.049 36.2885 228.07 36.518 227.182 36.9766C226.324 37.4353 225.652 38.0622 225.161 38.8573C224.671 39.6219 224.426 40.5086 224.426 41.5179V45.7379C224.426 46.7471 224.671 47.6493 225.161 48.4444C225.652 49.2089 226.324 49.8204 227.182 50.2792C228.07 50.738 229.049 50.9673 230.121 50.9673C231.958 50.9673 233.368 50.3404 234.347 49.0865C235.328 47.8021 235.816 45.9826 235.816 43.628C235.816 41.2732 235.328 39.469 234.347 38.2151C233.368 36.9307 231.958 36.2885 230.121 36.2885Z" fill="#FFAF0F"/>
<path d="M199.001 56.013C196.644 56.013 194.776 55.3555 193.398 54.0406C192.051 52.7256 191.377 50.9673 191.377 48.7653C191.377 46.0132 192.449 43.8879 194.592 42.3894C196.766 40.891 199.843 40.1417 203.824 40.1417H206.994C206.994 39.0714 206.855 38.2457 206.58 37.6646C206.335 37.0836 205.89 36.686 205.248 36.4719C204.635 36.2274 203.747 36.105 202.584 36.105C201.053 36.105 199.461 36.2733 197.806 36.6096C196.154 36.9153 194.592 37.3589 193.122 37.94L192.342 33.0775C193.934 32.4965 195.694 32.0531 197.623 31.7473C199.584 31.411 201.528 31.2427 203.456 31.2427C205.906 31.2427 207.834 31.5333 209.244 32.1143C210.652 32.6954 211.679 33.674 212.321 35.0499C212.964 36.3955 213.286 38.2151 213.286 40.5086V55.5544H207.269L207.178 52.802H207.13C206.274 53.7806 205.095 54.5604 203.594 55.1414C202.093 55.7225 200.563 56.013 199.001 56.013ZM201.299 51.2424C202.37 51.2424 203.333 51.0589 204.192 50.6919C205.048 50.325 205.722 49.8204 206.213 49.1783C206.733 48.5054 206.994 47.7715 206.994 46.9764V44.27H204.743C202.262 44.27 200.411 44.5912 199.185 45.2334C197.96 45.8449 197.348 46.8083 197.348 48.1233C197.348 49.1019 197.685 49.8664 198.358 50.4168C199.062 50.9673 200.043 51.2424 201.299 51.2424Z" fill="#FFAF0F"/>
<path d="M154.303 55.5544V31.7013H160.182L160.274 34.4995H160.366C161.254 33.4293 162.264 32.6189 163.397 32.0685C164.561 31.5179 165.923 31.2427 167.485 31.2427C169.016 31.2427 170.317 31.5179 171.389 32.0685C172.461 32.6189 173.226 33.4293 173.685 34.4995H173.777C174.727 33.368 175.798 32.5425 176.993 32.0225C178.187 31.5026 179.58 31.2427 181.172 31.2427C183.714 31.2427 185.551 31.9154 186.684 33.261C187.847 34.6066 188.429 36.7319 188.429 39.6371V55.5544H182.274V41.1967C182.274 39.5454 182.014 38.3375 181.494 37.573C180.973 36.8085 180.131 36.4261 178.967 36.4261C177.59 36.4261 176.502 36.9001 175.706 37.8481C174.91 38.7655 174.512 39.9888 174.512 41.5179V55.5544H168.312V40.8756C168.312 39.4078 168.021 38.3069 167.439 37.573C166.888 36.8085 166.061 36.4261 164.959 36.4261C164.132 36.4261 163.382 36.6554 162.708 37.1142C162.035 37.5424 161.499 38.1386 161.101 38.9032C160.703 39.6677 160.504 40.5393 160.504 41.5179V55.5544H154.303Z" fill="#FFAF0F"/>
<path d="M143.861 56.0126C140.982 56.0126 138.9 55.4316 137.614 54.2695C136.359 53.1074 135.731 51.196 135.731 48.5356V36.609H130.541V31.7009H135.731V23.9028H142.069V31.7009H149.831V36.609H142.069V46.976C142.069 48.4132 142.299 49.4224 142.758 50.0035C143.218 50.5539 144.044 50.829 145.239 50.829C145.881 50.829 146.555 50.768 147.259 50.6455C147.994 50.5233 148.668 50.355 149.28 50.1411L149.785 55.141C148.745 55.4468 147.749 55.6608 146.8 55.7831C145.851 55.936 144.871 56.0126 143.861 56.0126Z" fill="#FFAF0F"/>
<path d="M120.761 27.8939V22.0683H127.191V27.8939H120.761ZM120.761 55.5542V32.0223H127.191V55.5542H120.761Z" fill="#FFAF0F"/>
<path d="M91.0011 55.5542V22.0683H101.841C106.342 22.0683 109.71 22.7564 111.945 24.1325C114.211 25.4781 115.344 27.5118 115.344 30.2333C115.344 32.2518 114.762 33.9183 113.599 35.2332C112.466 36.5178 110.873 37.3587 108.822 37.7563V37.8479C111.363 38.2149 113.277 39.1017 114.563 40.5084C115.88 41.8846 116.538 43.7348 116.538 46.0588C116.538 49.2087 115.328 51.5787 112.91 53.1688C110.521 54.7591 106.939 55.5542 102.162 55.5542H91.0011ZM102.162 50.1871C104.856 50.1871 106.831 49.805 108.087 49.0404C109.342 48.2759 109.97 47.0832 109.97 45.4625C109.97 43.8112 109.342 42.6185 108.087 41.8846C106.831 41.1201 104.856 40.7377 102.162 40.7377H94.2162V35.5085H102.162C104.52 35.5085 106.234 35.1874 107.306 34.5451C108.378 33.8724 108.914 32.8174 108.914 31.3802C108.914 29.9734 108.378 28.9642 107.306 28.3527C106.265 27.7411 104.55 27.4351 102.162 27.4351H97.4312V50.1871H102.162Z" fill="#FFAF0F"/>
</svg>
