<svg width="3823" height="1184" viewBox="0 0 3823 1184" fill="none" xmlns="http://www.w3.org/2000/svg">
<path d="M3374.16 466.71H3402.56V353.84H3443.79V328.219H3332.93V353.84H3374.16V466.71ZM3457.3 466.71H3485.69V389.157L3516.87 466.729H3544.59L3575.76 389.157V466.729H3604.16V328.2H3572.65L3530.73 432.773L3488.81 328.2H3457.3V466.692V466.71ZM1137.34 681.543C1137.34 557.727 1229.13 458.58 1358.12 458.58C1433.36 458.58 1479.03 484.145 1505.47 502.998V592.28H1503.68C1465.16 563.435 1418.33 547.85 1370.21 547.862C1295.86 547.862 1240.34 591.366 1240.34 681.562C1240.34 771.72 1295.86 817.033 1370.21 817.033C1432.02 817.033 1478.14 792.363 1506.36 769.035H1508.15V859.212C1482.63 879.407 1439.18 906.315 1357.22 906.315C1230.04 906.315 1137.34 810.767 1137.34 681.543ZM1835.54 472.025H1937.22V892.404H1858.37L1849.42 825.107C1826.58 864.154 1782.26 903.182 1715.07 903.182C1612.52 903.182 1556.98 829.601 1556.98 719.229V472.491H1658.64V696.349C1658.64 787.421 1694.01 817.48 1742.39 817.48C1790.76 817.48 1835.09 779.347 1835.09 690.065V472.491L1835.54 472.025ZM2434.28 676.62C2434.28 808.511 2349.64 904.077 2235.44 904.077C2164.68 904.077 2117.22 866.839 2093.47 825.107L2083.61 892.423H2004.81V326.205H2106.47V531.229C2131.99 491.306 2178.11 460.352 2240.81 460.352C2351.45 460.352 2434.28 551.424 2434.28 676.154V676.62ZM2331.73 682.904C2331.73 612.903 2291.88 547.396 2215.29 547.396C2138.71 547.396 2102.42 613.798 2102.42 681.991C2102.42 750.183 2141.41 817.48 2216.19 817.48C2290.98 817.48 2331.73 752.887 2331.73 682.904Z" fill="white"/>
<path d="M2434.28 676.602C2434.28 808.511 2349.64 904.058 2235.44 904.058C2164.68 904.058 2117.22 866.82 2093.47 825.107L2083.61 892.404H2004.81V326.223H2106.47V531.248C2131.99 491.306 2178.11 460.352 2240.81 460.352C2351.45 460.352 2434.28 551.443 2434.28 676.154V676.602ZM2331.73 682.886C2331.73 612.903 2291.88 547.396 2215.29 547.396C2138.71 547.396 2102.42 613.78 2102.42 681.991C2102.42 750.183 2141.41 817.48 2216.19 817.48C2290.98 817.48 2331.73 752.868 2331.73 682.886ZM2465.64 339.22C2465.64 305.581 2492.04 280.035 2531.04 280.035C2569.99 280.035 2595.51 305.6 2595.51 339.239C2595.51 372.897 2568.2 398.462 2531.04 398.462C2493.85 398.462 2465.64 371.965 2465.64 339.22ZM2479.97 891.956V472.025H2581.65V892.404H2479.97V891.956ZM2632.25 859.641V773.958H2634.04C2666.74 795.943 2718.68 821.508 2776.01 821.508C2823.48 821.508 2853.05 804.912 2853.05 776.196C2853.05 700.824 2635.83 738.062 2635.83 593.156C2635.83 512.414 2700.32 461.247 2795.72 461.247C2853.92 461.247 2900.06 481.442 2925.6 497.609V582.378H2923.81C2897.38 565.782 2856.63 546.949 2803.78 546.949C2757.66 546.949 2732.13 563.545 2732.13 589.557C2732.13 657.749 2949.33 623.215 2949.33 771.72C2949.33 858.299 2876.78 903.611 2789.45 903.611C2724.06 903.611 2666.74 879.836 2632.25 859.194V859.641ZM3246.7 554.146H3124.89V725.065C3124.89 781.603 3132.06 816.138 3178.62 816.138C3200.58 816.138 3225.21 807.187 3237.74 800.884H3239.54V876.256C3225.21 887.929 3187.6 902.735 3143.25 902.735C3023.23 902.735 3023.23 794.6 3023.23 768.14V554.128H2951.57V472.043H3023.23V394.863L3123.1 325.776H3124.89V471.596H3246.7V554.128V554.146Z" fill="white"/>
<g clip-path="url(#clip0_441_167)">
<mask id="mask0_441_167" style="mask-type:luminance" maskUnits="userSpaceOnUse" x="146" y="259" width="787" height="650">
<path d="M933 259H146V909H933V259Z" fill="white"/>
</mask>
<g mask="url(#mask0_441_167)">
<path d="M537.299 391.725V582.301V582.483H844.32L537.299 391.725ZM537.299 259H841.56H841.731H928.78V582.301H859.49L928.78 651.509V905.784H924.582H656.25L537.299 786.994V905.784H146V582.05L217.799 582.278L535.713 785.249L535.93 582.483H216.579H215.29L146 513.275V259H418.53L537.299 377.79V259Z" fill="#F14B1C"/>
</g>
</g>
<defs>
<clipPath id="clip0_441_167">
<rect width="787" height="650" fill="white" transform="translate(146 259)"/>
</clipPath>
</defs>
</svg>
