<svg width="3465" height="650" viewBox="0 0 3465 650" fill="none" xmlns="http://www.w3.org/2000/svg">
<path d="M3228.16 207.71H3256.56V94.8398H3297.79V69.2187H3186.93V94.8398H3228.16V207.71ZM3311.3 207.71H3339.69V130.157L3370.87 207.729H3398.59L3429.76 130.157V207.729H3458.16V69.2001H3426.65L3384.73 173.773L3342.81 69.2001H3311.3V207.692V207.71ZM991.337 422.543C991.337 298.727 1083.13 199.58 1212.12 199.58C1287.36 199.58 1333.03 225.145 1359.47 243.998V333.28H1357.68C1319.16 304.435 1272.33 288.85 1224.21 288.862C1149.86 288.862 1094.34 332.366 1094.34 422.562C1094.34 512.72 1149.86 558.033 1224.21 558.033C1286.02 558.033 1332.14 533.363 1360.36 510.035H1362.15V600.212C1336.63 620.407 1293.18 647.315 1211.22 647.315C1084.04 647.315 991.337 551.767 991.337 422.543ZM1689.54 213.025H1791.22V633.404H1712.37L1703.42 566.107C1680.58 605.154 1636.26 644.182 1569.07 644.182C1466.52 644.182 1410.98 570.601 1410.98 460.229V213.491H1512.64V437.349C1512.64 528.421 1548.01 558.48 1596.39 558.48C1644.76 558.48 1689.09 520.347 1689.09 431.065V213.491L1689.54 213.025ZM2288.28 417.62C2288.28 549.511 2203.64 645.077 2089.44 645.077C2018.68 645.077 1971.22 607.839 1947.47 566.107L1937.61 633.423H1858.81V67.2048H1960.47V272.229C1985.99 232.306 2032.11 201.352 2094.81 201.352C2205.45 201.352 2288.28 292.424 2288.28 417.154V417.62ZM2185.73 423.904C2185.73 353.903 2145.88 288.396 2069.29 288.396C1992.71 288.396 1956.42 354.798 1956.42 422.991C1956.42 491.183 1995.41 558.48 2070.19 558.48C2144.98 558.48 2185.73 493.887 2185.73 423.904Z" fill="white"/>
<path d="M2288.28 417.602C2288.28 549.511 2203.64 645.058 2089.44 645.058C2018.68 645.058 1971.22 607.82 1947.47 566.107L1937.61 633.404H1858.81V67.2234H1960.47V272.248C1985.99 232.306 2032.11 201.352 2094.81 201.352C2205.45 201.352 2288.28 292.443 2288.28 417.154V417.602ZM2185.73 423.886C2185.73 353.903 2145.88 288.396 2069.29 288.396C1992.71 288.396 1956.42 354.78 1956.42 422.991C1956.42 491.183 1995.41 558.48 2070.19 558.48C2144.98 558.48 2185.73 493.868 2185.73 423.886ZM2319.64 80.2204C2319.64 46.5811 2346.04 21.0347 2385.04 21.0347C2423.99 21.0347 2449.51 46.5998 2449.51 80.2391C2449.51 113.897 2422.2 139.462 2385.04 139.462C2347.85 139.462 2319.64 112.965 2319.64 80.2204ZM2333.97 632.956V213.025H2435.65V633.404H2333.97V632.956ZM2486.25 600.641V514.958H2488.04C2520.74 536.943 2572.68 562.508 2630.01 562.508C2677.48 562.508 2707.05 545.912 2707.05 517.196C2707.05 441.824 2489.83 479.062 2489.83 334.156C2489.83 253.414 2554.32 202.247 2649.72 202.247C2707.92 202.247 2754.06 222.442 2779.6 238.609V323.378H2777.81C2751.38 306.782 2710.63 287.949 2657.78 287.949C2611.66 287.949 2586.13 304.545 2586.13 330.557C2586.13 398.749 2803.33 364.215 2803.33 512.72C2803.33 599.299 2730.78 644.611 2643.45 644.611C2578.06 644.611 2520.74 620.836 2486.25 600.194V600.641ZM3100.7 295.146H2978.89V466.065C2978.89 522.603 2986.06 557.138 3032.62 557.138C3054.58 557.138 3079.21 548.187 3091.74 541.884H3093.54V617.256C3079.21 628.929 3041.6 643.735 2997.25 643.735C2877.23 643.735 2877.23 535.6 2877.23 509.14V295.128H2805.57V213.043H2877.23V135.863L2977.1 66.7759H2978.89V212.596H3100.7V295.128V295.146Z" fill="white"/>
<g clip-path="url(#clip0_528_10)">
<mask id="mask0_528_10" style="mask-type:luminance" maskUnits="userSpaceOnUse" x="0" y="0" width="787" height="650">
<path d="M787 0H0V650H787V0Z" fill="white"/>
</mask>
<g mask="url(#mask0_528_10)">
<path d="M391.299 132.725V323.301V323.483H698.32L391.299 132.725ZM391.299 0H695.56H695.731H782.78V323.301H713.49L782.78 392.509V646.784H778.582H510.25L391.299 527.994V646.784H0V323.05L71.7995 323.278L389.713 526.249L389.93 323.483H70.579H69.2902L0 254.275V0H272.53L391.299 118.79V0Z" fill="#F14B1C"/>
</g>
</g>
<defs>
<clipPath id="clip0_528_10">
<rect width="787" height="650" fill="white"/>
</clipPath>
</defs>
</svg>
