<?xml version="1.0" encoding="UTF-8"?>
<svg id="Layer_2" data-name="Layer 2" xmlns="http://www.w3.org/2000/svg" viewBox="0 0 211.02 71.01">
  <defs>
    <style>
      .cls-1 {
        fill: #fff;
        stroke-width: 0px;
      }
    </style>
  </defs>
  <g id="Layer_1-2" data-name="Layer 1">
    <g>
      <path class="cls-1" d="M118.59,71.01c-6.85,0-12.77-1.54-17.73-4.61-4.97-3.07-8.78-7.29-11.46-12.63-2.68-5.35-4.01-11.44-4.01-18.26s1.34-12.91,4.01-18.26c2.67-5.35,6.49-9.56,11.46-12.63,4.96-3.07,10.87-4.61,17.73-4.61,2.83,0,5.47.48,7.91,1.45,2.44.97,4.65,2.33,6.62,4.08l7.38-4.61h1.57v20.34h-1.89c-1.14-3.81-2.7-7.14-4.68-9.98-1.98-2.84-4.32-5.05-7.01-6.62s-5.68-2.35-8.97-2.35-6.28.93-8.6,2.79c-2.32,1.86-4.17,4.37-5.53,7.52-1.37,3.15-2.35,6.7-2.95,10.65-.6,3.95-.9,8.03-.9,12.24s.3,8.25.9,12.22,1.58,7.52,2.95,10.67c1.37,3.15,3.21,5.66,5.53,7.52,2.32,1.86,5.19,2.79,8.6,2.79,3.04,0,5.73-.48,8.05-1.45,2.32-.97,4.35-2.31,6.09-4.03,1.74-1.72,3.22-3.74,4.45-6.04,1.23-2.31,2.24-4.78,3.04-7.42h1.89v20.34h-1.66l-6.82-4.89c-2,1.81-4.34,3.24-7.03,4.27-2.69,1.03-5.67,1.54-8.92,1.54Z"/>
      <path class="cls-1" d="M30.11.35c7.45,0,13.84,1.48,19.16,4.44,5.32,2.96,9.41,7.08,12.26,12.38,2.85,5.29,4.27,11.43,4.27,18.41,0,5.26-.84,10.04-2.54,14.35-1.69,4.31-4.11,8.02-7.26,11.13-3.15,3.12-6.91,5.52-11.3,7.21-4.38,1.69-9.25,2.54-14.61,2.54H0v-1.83h8.5V2.18H0V.35h30.11ZM23.11,68.97h7c3.63,0,6.68-.86,9.14-2.58,2.46-1.72,4.43-4.11,5.92-7.16,1.49-3.05,2.56-6.6,3.22-10.64.66-4.04.99-8.38.99-13.01s-.38-8.97-1.13-13.01c-.75-4.04-1.9-7.59-3.45-10.64-1.55-3.05-3.54-5.44-5.96-7.16-2.43-1.72-5.33-2.58-8.71-2.58h-7v66.79Z"/>
      <path class="cls-1" d="M49.69.35c7.45,0,13.84,1.48,19.16,4.44,5.32,2.96,9.41,7.08,12.26,12.38,2.85,5.29,4.27,11.43,4.27,18.41,0,5.26-.84,10.04-2.54,14.35-1.69,4.31-4.11,8.02-7.26,11.13-3.15,3.12-6.91,5.52-11.3,7.21-4.38,1.69-9.25,2.54-14.61,2.54h-30.11v-1.83h8.5V2.18h-8.5V.35h30.11ZM42.69,68.97h7c3.63,0,6.68-.86,9.14-2.58,2.46-1.72,4.43-4.11,5.92-7.16,1.49-3.05,2.56-6.6,3.22-10.64.66-4.04.99-8.38.99-13.01s-.38-8.97-1.13-13.01c-.75-4.04-1.9-7.59-3.45-10.64-1.55-3.05-3.54-5.44-5.96-7.16-2.43-1.72-5.33-2.58-8.71-2.58h-7v66.79Z"/>
      <path class="cls-1" d="M121.77,2.18h1.6c-.47-.21-.94-.44-1.48-.66-1.37-.56-3.31-.83-4.76-.55-.62.12-1.17.03-1.62-.2-.16.03-.33.04-.5.04-1.98-.02-3.49,1.12-5.25,1.86-.84.35-1.71.6-2.59.77v65.03c2.08.69,4.2,1.24,6.28,1.9.13-.02.26-.03.4-.03.41,0,.77.08,1.08.23,2.48-.32,5.31.23,7.02-1.57.01-.01.02-.02.03-.03h-.21V2.18Z"/>
      <g>
        <path class="cls-1" d="M141.72,70.09v-1.79h5.41V2.71h-5.41V.92h30.78v1.78h-11.07v65.58h11.07v1.8h-30.78Z"/>
        <path class="cls-1" d="M156.2,70.09v-1.79h10.19V2.71h-10.19V.92h35.56v1.78h-11.07v65.58h11.07v1.8h-35.56Z"/>
        <path class="cls-1" d="M175.46,70.09v-1.79h10.19V2.71h-10.19V.92h35.56v1.78h-11.07v65.58h11.07v1.8h-35.56Z"/>
      </g>
    </g>
  </g>
</svg>