<svg width="4981" height="1381" viewBox="0 0 4981 1381" fill="none" xmlns="http://www.w3.org/2000/svg">
<path d="M1605.84 726.947V861.425H1539.28V542.21H1605.84V672.613H1749.39V542.21H1815.95V861.425H1749.39V726.947H1605.84Z" fill="#FDFEFF"/>
<path d="M1960.66 732.833L1858.32 545.379V542.21H1927.15L1996.89 679.857L2066.62 542.21H2127.75V545.379L2027.22 730.117V861.425H1960.66V732.833Z" fill="#FDFEFF"/>
<path d="M2236.41 861.425H2170.75V542.21H2277.15C2315.51 542.21 2345.39 550.813 2366.81 568.019C2388.55 585.225 2399.42 610.732 2399.42 644.54C2399.42 677.444 2388.86 702.497 2367.72 719.702C2346.89 736.607 2318.52 745.058 2282.59 745.058H2236.41V861.425ZM2236.41 697.063H2278.06C2298.3 697.063 2312.93 692.687 2321.98 683.932C2331.36 674.877 2336.02 661.293 2336.02 643.181C2336.02 625.976 2331.04 613.298 2321.08 605.147C2311.43 596.997 2296.33 592.922 2275.8 592.922H2236.41V697.063Z" fill="#FDFEFF"/>
<path d="M2640.86 542.21V592.922H2515.88V672.16H2623.65V721.966H2515.88V810.713H2642.22V861.425H2450.22V542.21H2640.86Z" fill="#FDFEFF"/>
<path d="M2768.82 741.436V861.425H2703.17V542.21H2814.11C2852.73 542.21 2882.48 550.664 2903.31 567.566C2924.44 584.471 2935.01 608.77 2935.01 640.465C2935.01 662.198 2929.71 680.462 2919.16 695.252C2908.59 710.044 2893.64 720.608 2874.33 726.947L2956.29 857.35V861.425H2886.56L2813.2 741.436H2768.82ZM2768.82 692.988H2810.48C2850.63 692.988 2870.71 675.633 2870.71 640.918C2870.71 624.015 2865.73 611.638 2855.77 603.789C2845.8 595.942 2829.96 592.017 2808.22 592.017H2768.82V692.988Z" fill="#FDFEFF"/>
<path d="M3076.4 700.686C3076.4 669.595 3083.35 641.522 3097.23 616.468C3111.13 591.415 3130.45 571.793 3155.19 557.605C3180.26 543.419 3208.78 536.324 3240.77 536.324C3272.79 536.324 3301.16 543.419 3325.9 557.605C3350.67 571.793 3369.99 591.415 3383.86 616.468C3397.77 641.522 3404.69 669.595 3404.69 700.686C3404.69 731.779 3397.77 760.001 3383.86 785.357C3369.99 810.713 3350.52 830.787 3325.45 845.578C3300.71 860.067 3272.47 867.311 3240.77 867.311C3208.78 867.311 3180.26 860.067 3155.19 845.578C3130.45 830.787 3111.13 810.713 3097.23 785.357C3083.35 760.001 3076.4 731.779 3076.4 700.686ZM3336.77 700.686C3336.77 677.745 3332.86 657.823 3325 640.918C3317.16 624.015 3305.98 611.034 3291.49 601.978C3277 592.621 3260.11 587.942 3240.77 587.942C3221.46 587.942 3204.55 592.621 3190.06 601.978C3175.57 611.034 3164.41 624.015 3156.55 640.918C3148.72 657.823 3144.78 677.745 3144.78 700.686C3144.78 723.629 3148.72 743.852 3156.55 761.359C3164.41 778.565 3175.57 791.999 3190.06 801.657C3204.55 811.016 3221.46 815.694 3240.77 815.694C3260.11 815.694 3277 811.016 3291.49 801.657C3305.98 791.999 3317.16 778.565 3325 761.359C3332.86 743.852 3336.77 723.629 3336.77 700.686Z" fill="#FDFEFF"/>
<path d="M3523.67 741.436V861.425H3458.01V542.21H3568.95C3607.58 542.21 3637.33 550.664 3658.16 567.566C3679.28 584.471 3689.86 608.77 3689.86 640.465C3689.86 662.198 3684.56 680.462 3674.01 695.252C3663.43 710.044 3648.49 720.608 3629.18 726.947L3711.14 857.35V861.425H3641.41L3568.05 741.436H3523.67ZM3523.67 692.988H3565.33C3605.47 692.988 3625.56 675.633 3625.56 640.918C3625.56 624.015 3620.58 611.638 3610.61 603.789C3600.65 595.942 3584.8 592.017 3563.07 592.017H3523.67V692.988Z" fill="#FDFEFF"/>
<path d="M3816.65 790.337L3791.74 861.425H3731.52V858.255L3850.15 542.21H3913.55L4032.19 858.255V861.425H3963.81L3938.91 790.337H3816.65ZM3833.4 742.342H3922.15L3877.78 616.014L3833.4 742.342Z" fill="#FDFEFF"/>
<path d="M4043.08 700.686C4043.08 668.69 4050.32 640.316 4064.81 615.562C4079.3 590.509 4099.52 571.039 4125.49 557.152C4151.44 543.268 4180.87 536.324 4213.79 536.324C4233.71 536.324 4250.47 537.834 4264.05 540.852C4277.93 543.872 4291.06 548.549 4303.45 554.888V611.94L4301.18 613.298C4289.41 605.148 4277.03 599.112 4264.05 595.187C4251.37 590.962 4236.57 588.847 4219.68 588.847C4197.94 588.847 4178.92 593.375 4162.62 602.431C4146.32 611.487 4133.64 624.468 4124.58 641.371C4115.82 658.276 4111.45 678.047 4111.45 700.686C4111.45 723.325 4115.98 743.248 4125.04 760.454C4134.09 777.66 4147.07 790.942 4163.98 800.299C4180.87 809.658 4200.5 814.335 4222.85 814.335C4240.96 814.335 4256.65 811.922 4269.94 807.091C4283.21 801.961 4296.34 794.112 4309.33 783.546L4312.05 784.904V841.503C4300.28 849.653 4286.99 855.992 4272.2 860.52C4257.71 865.047 4239.28 867.311 4216.96 867.311C4182.84 867.311 4152.5 860.219 4125.94 846.03C4099.68 831.845 4079.3 812.071 4064.81 786.715C4050.32 761.359 4043.08 732.684 4043.08 700.686Z" fill="#FDFEFF"/>
<path d="M4435.08 542.21V808.449H4554.63V861.425H4368.52V542.21H4435.08Z" fill="#FDFEFF"/>
<path d="M4798.81 542.21V592.922H4673.83V672.16H4781.6V721.966H4673.83V810.713H4800.17V861.425H4608.17V542.21H4798.81Z" fill="#FDFEFF"/>
<path d="M307.541 486.746L679.227 701.82" stroke="url(#paint0_linear_529_14)" stroke-width="30" stroke-linecap="round"/>
<path d="M679.225 701.822V1128.19" stroke="url(#paint1_linear_529_14)" stroke-width="30" stroke-linecap="round"/>
<path d="M679.227 701.82L1050.42 482.904" stroke="url(#paint2_linear_529_14)" stroke-width="30" stroke-linecap="round"/>
<path d="M1238.53 807.115L1053.7 914.032M1053.7 914.032L689.923 1124.8C682.859 1128.9 674.14 1128.87 667.101 1124.73L525.953 1041.78C510.86 1032.91 491.84 1043.8 491.84 1061.3V1226.43C491.84 1234.51 496.146 1241.97 503.138 1246.02L667.144 1340.97C674.163 1345.03 682.82 1345.03 689.837 1340.96L1238.46 1023.17M1053.7 914.032V808.7" stroke="url(#paint3_linear_529_14)" stroke-width="30" stroke-linecap="round"/>
<path d="M305.197 1131.25L305.211 915.13M305.211 915.13L305.238 496.042C305.238 487.964 309.542 480.498 316.533 476.452L458.299 394.382C473.306 385.695 473.376 364.057 458.429 355.273L316.71 271.987C309.628 267.826 300.848 267.826 293.766 271.987L129.756 368.374C122.836 372.44 118.586 379.866 118.587 387.891L118.591 1021.55M305.211 915.13L395.509 969.157" stroke="url(#paint4_linear_529_14)" stroke-width="30" stroke-linecap="round"/>
<path d="M490.554 157.22L677.341 265.931M677.341 265.931L1039.66 476.807C1046.63 480.862 1050.92 488.312 1050.92 496.374V659.072C1050.92 676.448 1069.68 687.346 1084.77 678.739L1226.28 598.036C1233.34 594.009 1237.7 586.502 1237.7 578.372V386.601C1237.7 378.525 1233.4 371.059 1226.41 367.011L677.341 49.0537M677.341 265.931L585.587 321.107" stroke="url(#paint5_linear_529_14)" stroke-width="30" stroke-linecap="round"/>
<defs>
<linearGradient id="paint0_linear_529_14" x1="659.31" y1="686.138" x2="652.374" y2="697.836" gradientUnits="userSpaceOnUse">
<stop stop-color="#BD3E7F"/>
<stop offset="1" stop-color="#B74296"/>
</linearGradient>
<linearGradient id="paint1_linear_529_14" x1="nan" y1="nan" x2="nan" y2="nan" gradientUnits="userSpaceOnUse">
<stop stop-color="#BD3E7F"/>
<stop offset="1" stop-color="#F26E40"/>
</linearGradient>
<linearGradient id="paint2_linear_529_14" x1="711.962" y1="690.174" x2="1041.8" y2="527.271" gradientUnits="userSpaceOnUse">
<stop stop-color="#BD3E7F"/>
<stop offset="1" stop-color="#59987D"/>
</linearGradient>
<linearGradient id="paint3_linear_529_14" x1="1226.31" y1="815.186" x2="489.517" y2="1234.83" gradientUnits="userSpaceOnUse">
<stop stop-color="#FDD22F"/>
<stop offset="1" stop-color="#ED4946"/>
</linearGradient>
<linearGradient id="paint4_linear_529_14" x1="305.872" y1="1114.49" x2="301.697" y2="277.873" gradientUnits="userSpaceOnUse">
<stop stop-color="#ED4946"/>
<stop offset="1" stop-color="#A13EB4"/>
</linearGradient>
<linearGradient id="paint5_linear_529_14" x1="517.428" y1="175.499" x2="1217.65" y2="572" gradientUnits="userSpaceOnUse">
<stop stop-color="#734DBA"/>
<stop offset="0.291667" stop-color="#5260B8"/>
<stop offset="1" stop-color="#5BB35F"/>
</linearGradient>
</defs>
</svg>
