<svg width="3931" height="819" viewBox="0 0 3931 819" fill="none" xmlns="http://www.w3.org/2000/svg">
<path d="M727.66 60H813.193V236.104H511.45V365.429C511.45 583.355 336.622 760 120.968 760H0V583.945H337.145V454.623C337.18 236.663 512.005 60 727.66 60Z" fill="#9FBDAE"/>
<path d="M1663.99 555.628C1663.99 661.816 1575.54 758.689 1403.29 758.689C1221.73 758.689 1142.59 641.329 1142.59 520.231H1235.7C1237.53 585.432 1272.01 676.716 1403.29 676.716C1531.78 676.716 1567.16 610.583 1567.16 561.216C1567.16 503.469 1530.85 471.798 1402.38 455.964C1249.68 437.335 1164.96 384.24 1164.96 272.458C1164.96 169.998 1252.48 88.0273 1404.25 88.0273C1565.31 88.0273 1636.08 190.486 1638.87 296.672H1548.56C1548.56 238.927 1509.45 169.999 1402.38 169.999C1292.52 169.999 1260.85 224.035 1260.85 266.871C1260.85 306.923 1278.55 346.974 1411.69 364.677C1555.99 384.203 1663.99 417.735 1663.99 555.628Z" fill="#9FBDAE"/>
<path d="M1857.65 468.996C1943.31 462.474 2029.89 472.713 2028.96 423.349C2028.04 384.231 2005.69 345.105 1907.92 345.105C1824.13 345.105 1795.26 376.776 1788.75 423.349H1701.23C1717.99 314.359 1801.78 266.861 1911.65 266.861C2018.76 266.861 2118.35 304.118 2118.35 479.235V751.25H2028.96V705.584C2028.96 687.891 2030.79 673.914 2039.2 649.717C2041.03 641.336 2044.79 633.881 2038.29 631.088C2030.84 628.295 2028.98 635.741 2027.12 640.403C2000.11 711.189 1936.81 758.698 1850.21 758.698C1759.9 758.698 1686.34 699.081 1686.34 618.045C1686.33 509.048 1766.4 475.508 1857.65 468.996ZM1863.23 540.718C1805.51 549.097 1775.71 569.595 1775.71 613.364C1775.71 651.558 1807.37 686.955 1884.65 676.707C1957.28 667.392 2028.04 614.3 2028.97 494.145C2000.08 529.534 1935.85 530.47 1863.23 540.718Z" fill="#9FBDAE"/>
<path d="M2304.56 352.535V602.166C2304.56 656.204 2315.72 672.955 2367.86 672.955H2438.58V751.208H2360.37C2261.69 751.208 2215.14 714.876 2215.14 611.481V352.535H2125.75V274.291H2215.21V140.151H2304.59V274.291H2438.58V352.535H2304.56Z" fill="#9FBDAE"/>
<path d="M2907.86 512.774C2907.86 647.83 2821.28 758.679 2676.97 758.679C2532.63 758.679 2446.05 647.858 2446.05 512.774C2446.05 377.693 2532.63 266.861 2676.97 266.861C2821.28 266.861 2907.86 377.709 2907.86 512.774ZM2818.48 512.774C2818.48 422.413 2766.31 348.832 2676.97 348.832C2587.63 348.832 2535.43 422.413 2535.43 512.774C2535.43 603.135 2587.58 676.716 2676.97 676.716C2766.35 676.716 2818.5 603.125 2818.5 512.774H2818.48Z" fill="#9FBDAE"/>
<path d="M3036.4 376.766C3066.19 300.382 3093.17 266.861 3213.3 266.861V358.146C3074.57 348.832 3034.53 398.198 3034.53 523.006V751.224H2945.17V274.307H3034.53V305.978C3034.53 325.533 3032.71 340.443 3024.29 368.387C3022.47 375.833 3019.65 383.288 3027.09 385.148C3031.73 386.081 3034.51 381.419 3036.4 376.766Z" fill="#9FBDAE"/>
<path d="M3246.79 80.5591H3343.61V184.887H3246.79V80.5591ZM3250.52 274.313H3339.9V751.229H3250.52V274.313Z" fill="#9FBDAE"/>
</svg>
