<svg width="3931" height="819" viewBox="0 0 3931 819" fill="none" xmlns="http://www.w3.org/2000/svg">
<path d="M851.362 0H951.436V206.042H598.396V357.352C598.396 612.325 393.848 819 141.533 819H0V613.016H394.459V461.708C394.5 206.696 599.046 0 851.362 0Z" fill="#9FBDAE"/>
<path d="M1946.87 579.885C1946.87 704.124 1843.38 817.466 1641.85 817.466C1429.43 817.466 1336.83 680.155 1336.83 538.471H1445.76C1447.91 614.755 1488.25 721.558 1641.85 721.558C1792.18 721.558 1833.58 644.182 1833.58 586.423C1833.58 518.858 1791.09 481.804 1640.78 463.278C1462.13 441.482 1363 379.361 1363 248.575C1363 128.698 1465.4 32.792 1642.97 32.792C1831.42 32.792 1914.21 152.669 1917.48 276.907H1811.82C1811.82 209.345 1766.06 128.698 1640.78 128.698C1512.25 128.698 1475.2 191.922 1475.2 242.039C1475.2 288.9 1495.9 335.76 1651.68 356.473C1820.5 379.317 1946.87 418.55 1946.87 579.885Z" fill="#9FBDAE"/>
<path d="M2173.44 478.526C2273.67 470.895 2374.97 482.874 2373.88 425.119C2372.81 379.35 2346.65 333.573 2232.27 333.573C2134.23 333.573 2100.46 370.628 2092.83 425.119H1990.43C2010.05 297.6 2108.09 242.028 2236.63 242.028C2361.95 242.028 2478.47 285.618 2478.47 490.505V808.763H2373.88V755.334C2373.88 734.632 2376.02 718.28 2385.87 689.969C2388.01 680.163 2392.4 671.441 2384.8 668.173C2376.09 664.905 2373.9 673.617 2371.73 679.071C2340.13 761.891 2266.06 817.477 2164.75 817.477C2059.08 817.477 1973.02 747.725 1973.02 652.912C1973.01 525.386 2066.69 486.145 2173.44 478.526ZM2179.98 562.44C2112.45 572.244 2077.58 596.227 2077.58 647.436C2077.58 692.123 2114.62 733.538 2205.04 721.547C2290.01 710.649 2372.81 648.531 2373.89 507.949C2340.09 549.355 2264.95 550.45 2179.98 562.44Z" fill="#9FBDAE"/>
<path d="M2696.33 342.266V634.335C2696.33 697.559 2709.4 717.158 2770.4 717.158H2853.14V808.714H2761.64C2646.18 808.714 2591.71 766.205 2591.71 645.233V342.266H2487.13V250.721H2591.8V93.7773H2696.37V250.721H2853.14V342.266H2696.33Z" fill="#9FBDAE"/>
<path d="M3402.2 529.746C3402.2 687.761 3300.89 817.455 3132.05 817.455C2963.18 817.455 2861.88 687.794 2861.88 529.746C2861.88 371.701 2963.18 242.028 3132.05 242.028C3300.89 242.028 3402.2 371.72 3402.2 529.746ZM3297.62 529.746C3297.62 424.024 3236.58 337.933 3132.05 337.933C3027.53 337.933 2966.46 424.024 2966.46 529.746C2966.46 635.468 3027.47 721.558 3132.05 721.558C3236.63 721.558 3297.65 635.457 3297.65 529.746H3297.62Z" fill="#9FBDAE"/>
<path d="M3552.59 370.617C3587.45 281.248 3619 242.028 3759.56 242.028V348.831C3597.25 337.933 3550.4 395.692 3550.4 541.717V808.733H3445.85V250.74H3550.4V287.794C3550.4 310.674 3548.27 328.119 3538.42 360.813C3536.29 369.525 3532.99 378.247 3541.69 380.423C3547.13 381.515 3550.38 376.06 3552.59 370.617Z" fill="#9FBDAE"/>
<path d="M3798.74 24.0542H3912.03V146.118H3798.74V24.0542ZM3803.11 250.746H3907.69V808.738H3803.11V250.746Z" fill="#9FBDAE"/>
</svg>
