<svg width="1089" height="1089" viewBox="0 0 1089 1089" fill="none" xmlns="http://www.w3.org/2000/svg">
<g clip-path="url(#clip0_528_11)">
<path d="M1043.23 659.842L1041.85 661.288C1041.21 661.952 1040.56 662.612 1039.9 663.267L662.757 1039.8C597.058 1105.4 490.539 1105.4 424.84 1039.8L320.691 935.829C313.307 928.486 313.292 916.545 320.642 909.17C322.805 907 325.464 905.39 328.387 904.476C440.018 870.017 530.723 830.239 600.498 785.146C766.671 677.749 914.248 635.982 1043.23 659.842ZM964.16 350.099C1103.4 393.977 1087.15 496.411 1089 536.794C936.506 456.831 753.052 486.14 538.637 624.714C378.823 728.001 244.952 770.585 137.028 752.467C29.1036 734.349 4.82636 602.544 0 567.518C118.589 627.48 277.516 593.065 476.775 464.286C662.454 344.284 824.915 306.22 964.16 350.099ZM662.757 49.1948L760.617 146.884C767.988 154.239 767.999 166.18 760.645 173.552C758.021 176.182 754.679 177.978 751.038 178.712C609.37 207.252 496.072 248.967 411.142 303.857C265.607 397.914 141.586 441.632 39.0821 435.011L39.0932 434.983L424.84 49.1948C490.539 -16.3983 597.058 -16.3983 662.757 49.1948Z" fill="url(#paint0_linear_528_11)"/>
</g>
<defs>
<linearGradient id="paint0_linear_528_11" x1="544.5" y1="-6.09023e-06" x2="533.823" y2="1836.35" gradientUnits="userSpaceOnUse">
<stop stop-color="white"/>
<stop offset="1" stop-color="#1DB058"/>
</linearGradient>
<clipPath id="clip0_528_11">
<rect width="1089" height="1089" fill="white"/>
</clipPath>
</defs>
</svg>
